<?xml version="1.0" encoding="UTF-8"?>
<!DOCTYPE svg PUBLIC "-//W3C//DTD SVG 1.1//EN" "http://www.w3.org/Graphics/SVG/1.1/DTD/svg11.dtd">
<!-- Creator: CorelDRAW -->
<svg xmlns="http://www.w3.org/2000/svg" xml:space="preserve" width="61px" height="61px" version="1.1" shape-rendering="geometricPrecision" text-rendering="geometricPrecision" image-rendering="optimizeQuality" fill-rule="evenodd" clip-rule="evenodd"
viewBox="0 0 1.62 1.62"
 xmlns:xlink="http://www.w3.org/1999/xlink"
 xmlns:xodm="http://www.corel.com/coreldraw/odm/2003">
 <g id="Capa_x0020_1">
  <metadata id="CorelCorpID_0Corel-Layer"/>
  <path fill="#495057" fill-rule="nonzero" d="M1.62 0.81c0,0.21 -0.09,0.42 -0.24,0.57 -0.15,0.15 -0.36,0.24 -0.57,0.24 -0.21,0 -0.42,-0.09 -0.57,-0.24 -0.15,-0.15 -0.24,-0.36 -0.24,-0.57 0,-0.21 0.08,-0.42 0.24,-0.57 0.15,-0.15 0.35,-0.24 0.57,-0.24 0.21,0 0.42,0.08 0.57,0.24 0.15,0.15 0.24,0.35 0.24,0.57l0 0zm-0.81 -0.41c-0.01,0 -0.03,0.01 -0.04,0.01 -0.01,0.01 -0.02,0.02 -0.03,0.02 -0.01,0.01 -0.01,0.03 -0.02,0.04 0,0.01 0,0.02 0,0.03l0.03 0.36c0,0.01 0.01,0.03 0.02,0.04 0.01,0.01 0.02,0.01 0.04,0.01 0.01,0 0.03,-0.01 0.04,-0.01 0.01,-0.01 0.01,-0.03 0.01,-0.04l0.04 -0.36c0,-0.01 0,-0.02 -0.01,-0.03 0,-0.02 -0.01,-0.03 -0.01,-0.04 -0.01,-0.01 -0.02,-0.01 -0.04,-0.02 -0.01,0 -0.02,-0.01 -0.03,-0.01l0 0zm0 0.61c-0.03,0 -0.05,0.01 -0.07,0.03 -0.02,0.02 -0.03,0.05 -0.03,0.07 0,0.03 0.01,0.05 0.03,0.07 0.02,0.02 0.04,0.03 0.07,0.03 0.03,0 0.05,-0.01 0.07,-0.03 0.02,-0.02 0.03,-0.04 0.03,-0.07 0,-0.03 -0.01,-0.05 -0.03,-0.07 -0.02,-0.02 -0.04,-0.03 -0.07,-0.03z"/>
 </g>
</svg>
