<?xml version="1.0" encoding="UTF-8"?>
<!DOCTYPE svg PUBLIC "-//W3C//DTD SVG 1.1//EN" "http://www.w3.org/Graphics/SVG/1.1/DTD/svg11.dtd">
<!-- Creator: CorelDRAW -->
<svg xmlns="http://www.w3.org/2000/svg" xml:space="preserve" width="1278px" height="1158px" version="1.1" shape-rendering="geometricPrecision" text-rendering="geometricPrecision" image-rendering="optimizeQuality" fill-rule="evenodd" clip-rule="evenodd"
viewBox="0 0 455.25 412.36"
 xmlns:xlink="http://www.w3.org/1999/xlink"
 xmlns:xodm="http://www.corel.com/coreldraw/odm/2003">
 <g id="Capa_x0020_1">
  <metadata id="CorelCorpID_0Corel-Layer"/>
  <g id="_2107799914384">
   <path fill="#E8E8E8" fill-rule="nonzero" d="M0.83 338.91c3.97,-1.95 5.65,-7.12 9.96,-8.47 4.43,-1.39 9.34,1.33 13.39,-1.67 1.76,-1.31 3.07,-3.49 5.2,-4.28 1.88,-0.67 3.83,0.07 5.63,0.63 1.54,0.49 3.08,0.93 4.61,1.42 6.19,1.89 12.35,3.76 18.54,5.65 7.01,2.13 13.99,4.29 21.01,6.41 0.67,0.22 0.97,-0.87 0.3,-1.09 -12.84,-3.91 -25.63,-7.82 -38.46,-11.72 -3,-0.9 -6.12,-2.28 -9.23,-2.65 -2.17,-0.26 -3.9,0.61 -5.43,2.03 -2.14,1.99 -3.75,3.83 -6.86,3.98 -2.59,0.15 -5.14,-0.51 -7.72,-0.1 -5.33,0.83 -6.97,6.64 -11.46,8.85 -0.68,0.38 -0.11,1.35 0.52,1.01z"/>
   <path fill="#E8E8E8" fill-rule="nonzero" d="M68.21 334.09c2.66,0.67 4.76,-1.99 7.16,-2.78 3.22,-1.09 6.67,-0.65 9.6,1.03 0.64,0.37 1.2,-0.6 0.56,-0.98 -2.48,-1.45 -5.29,-2.05 -8.14,-1.67 -1.24,0.15 -2.4,0.49 -3.52,0.98 -1.61,0.72 -3.49,2.78 -5.36,2.33 -0.71,-0.19 -1.01,0.9 -0.3,1.09z"/>
   <path fill="#E8E8E8" fill-rule="nonzero" d="M97.12 331.23c-2.52,-2.05 -4.92,-4.26 -7.17,-6.61 -1.06,-1.08 -2.07,-2.24 -3.05,-3.4 -0.56,-0.67 -1.13,-1.35 -1.65,-2.02 -0.38,-0.48 -0.75,-0.97 -1.09,-1.46 -0.6,-0.59 -0.6,-1.34 0.03,-2.17 0.45,0.19 1.16,-0.26 0.79,-0.78 -2.29,-3.07 -3.99,-6.43 -5.08,-10.1 -0.22,0.23 -0.45,0.45 -0.67,0.68 1.23,0.33 2.14,0.97 2.81,2.01 0.38,0.6 1.35,0.07 0.98,-0.56 -5.61,-9.65 -10.2,-19.82 -13.67,-30.4 -0.29,0.18 -0.63,0.37 -0.93,0.56 15.74,15.39 22.89,36.82 36.16,54.05 0.45,0.56 1.43,0 0.97,-0.56 -13.3,-17.3 -20.53,-38.81 -36.35,-54.28 -0.37,-0.37 -1.12,0 -0.93,0.57 3.5,10.69 8.09,20.94 13.77,30.66 0.34,-0.19 0.64,-0.38 0.98,-0.56 -0.87,-1.31 -1.99,-2.17 -3.5,-2.54 -0.41,-0.11 -0.82,0.26 -0.67,0.67 1.13,3.74 2.86,7.22 5.19,10.36 0.26,-0.26 0.53,-0.52 0.79,-0.79 -1.05,-0.48 -2.21,0.01 -2.47,1.24 -0.34,1.76 1.8,3.7 2.78,4.94 3.34,4.15 7.14,7.92 11.27,11.28 0.48,0.45 1.27,-0.34 0.71,-0.79z"/>
   <path fill="#E8E8E8" fill-rule="nonzero" d="M93.14 307.85c-6.91,-10.28 -12.52,-21.31 -16.66,-32.98 -0.12,0.23 -0.26,0.45 -0.38,0.68 1.28,-0.31 2.37,0.18 3.08,1.3 0.38,0.64 1.28,0.07 0.97,-0.56 -5.83,-12.53 -11.77,-25.58 -11.38,-39.69 -0.34,0.11 -0.72,0.19 -1.05,0.3 10.04,20.57 19.6,41.4 28.63,62.41 0.27,0.6 1.24,0.15 1.02,-0.45 -1.51,-4.49 -2.98,-9.01 -4.49,-13.5 -0.71,-2.21 -1.47,-4.38 -2.18,-6.58 -0.49,-1.46 -1.55,-4.64 0.55,-5.43 -0.23,-0.07 -0.41,-0.19 -0.64,-0.26 2.71,5.27 5.38,10.54 8.09,15.82 0.34,0.63 1.31,0.07 0.97,-0.57 -2.93,-5.72 -4.29,-12.04 -4.04,-18.48 -0.37,0.04 -0.75,0.12 -1.09,0.15 7.83,19.34 16.9,38.18 27.1,56.39 0.33,0.64 1.31,0.08 0.97,-0.56 -10.16,-18.13 -19.19,-36.87 -26.98,-56.13 -0.22,-0.56 -1.09,-0.52 -1.09,0.15 -0.25,6.63 1.19,13.1 4.2,19.05 0.33,-0.19 0.63,-0.38 0.97,-0.57 -2.71,-5.27 -5.38,-10.54 -8.09,-15.81 -0.11,-0.19 -0.41,-0.34 -0.63,-0.26 -3.75,1.39 -1.34,6.73 -0.52,9.24 1.96,5.87 3.89,11.78 5.85,17.65 0.33,-0.15 0.67,-0.3 1.01,-0.45 -9.04,-21.01 -18.59,-41.84 -28.64,-62.41 -0.26,-0.52 -1.05,-0.22 -1.05,0.3 -0.43,14.3 5.63,27.57 11.54,40.25 0.34,-0.19 0.64,-0.38 0.97,-0.56 -0.97,-1.54 -2.55,-2.21 -4.35,-1.83 -0.3,0.08 -0.49,0.41 -0.37,0.67 4.18,11.75 9.82,22.89 16.78,33.25 0.37,0.63 1.35,0.07 0.93,-0.53z"/>
   <path fill="#E8E8E8" fill-rule="nonzero" d="M19.16 380.31c12.97,-6.27 26.64,-12.66 41.46,-11.18 7.01,0.7 13.8,2.71 20.78,3.59 3.52,0.45 7.09,0.63 10.61,0.21 3.3,-0.42 6.41,-1.62 9.63,-2.34 4.17,-0.94 7.95,0.03 11.97,1.14 3.3,0.9 6.56,1.64 9.97,0.85 0.72,-0.15 0.42,-1.24 -0.3,-1.08 -6.82,1.61 -13.24,-3.28 -20.14,-2.29 -3.41,0.49 -6.6,1.84 -9.97,2.45 -3.56,0.6 -7.2,0.53 -10.8,0.09 -7.09,-0.81 -13.99,-2.9 -21.12,-3.67 -7.01,-0.78 -13.95,0.13 -20.66,2.09 -7.64,2.26 -14.87,5.71 -21.99,9.17 -0.68,0.3 -0.08,1.27 0.56,0.97z"/>
   <path fill="#E8E8E8" fill-rule="nonzero" d="M95.33 411.21c4.39,-1.88 8.7,-3.95 12.86,-6.27 2.17,-1.24 4.31,-2.52 6.44,-3.87 1.91,-1.24 3.82,-3 5.92,-3.9 2.36,-0.98 5.93,0.85 8.29,1.56 2.51,0.78 5.03,1.53 7.5,2.31 5.14,1.56 10.28,3.12 15.39,4.69 0.67,0.22 0.97,-0.86 0.29,-1.09 -5.47,-1.67 -10.99,-3.35 -16.47,-5.02 -2.62,-0.82 -5.25,-1.6 -7.88,-2.42 -2.02,-0.64 -4.57,-1.94 -6.71,-1.41 -1.99,0.49 -3.78,2.21 -5.47,3.33 -2.17,1.43 -4.42,2.82 -6.67,4.13 -4.53,2.59 -9.21,4.92 -14.05,6.95 -0.67,0.3 -0.07,1.27 0.56,1.01z"/>
   <path fill="#E8E8E8" fill-rule="nonzero" d="M141.99 412.29c2.84,-1.42 5.69,-2.89 8.54,-4.32 2.62,-1.35 5.43,-3.15 8.43,-3.41 3.04,-0.31 5.4,1.67 8.03,2.83 2.21,0.97 4.62,1.52 7.02,1.67 5.62,0.29 10.87,-2.52 16.45,-2.23 4.47,0.25 8.97,3.91 13.36,1.58 0.63,-0.34 0.07,-1.31 -0.57,-0.97 -2.73,1.46 -5.7,0.05 -8.4,-0.81 -2.32,-0.74 -4.58,-1.08 -7.01,-0.81 -5.78,0.61 -11.06,3.05 -16.99,1.67 -4.91,-1.11 -8.67,-5.18 -13.95,-3.64 -2.44,0.71 -4.72,2.06 -6.97,3.19 -2.85,1.43 -5.7,2.89 -8.55,4.32 -0.59,0.3 -0.03,1.27 0.61,0.93z"/>
   <path fill="#E8E8E8" fill-rule="nonzero" d="M163.87 404.14c-2.33,-2.02 -4.43,-4.26 -6.16,-6.84 -0.79,-1.16 -1.5,-2.39 -2.18,-3.63 -0.34,-0.63 -0.64,-1.27 -0.9,-1.91 -0.23,-0.52 -0.45,-1.01 -0.64,-1.53 -0.34,-0.56 -0.19,-1.08 0.45,-1.57 0.33,-0.15 0.67,-0.3 1.01,-0.45 -4.14,-6.06 -6.74,-12.94 -7.61,-20.2 -0.34,0.15 -0.64,0.27 -0.97,0.42 0.67,0.85 1.35,1.71 2.06,2.61 0.41,0.52 1.2,-0.15 0.9,-0.67 -6.54,-11.63 -10.05,-24.72 -10.15,-38.05 -0.34,0.15 -0.64,0.27 -0.97,0.42 2.55,2.05 4.5,4.59 5.71,7.62 0.34,-0.15 0.67,-0.3 1.01,-0.45 -2.93,-6.17 -3.54,-13.13 -1.83,-19.72 -0.38,0 -0.71,0 -1.09,0.01 7.73,21.95 15.41,43.87 23.13,65.82 0.23,0.67 1.32,0.37 1.09,-0.3 -3.88,-11.26 -5.81,-23.08 -5.72,-35.02 -0.34,0.15 -0.64,0.26 -0.97,0.41 2.29,2.06 3.72,4.64 4.25,7.67 0.11,0.64 1.12,0.48 1.08,-0.15 -0.11,-2.28 -0.27,-4.6 -0.38,-6.89 -0.3,0.15 -0.56,0.34 -0.86,0.49 1.99,1.27 2.37,4.64 3.01,6.73 0.68,2.25 1.35,4.49 2.07,6.77 1.4,4.64 2.83,9.24 4.22,13.88 2.83,9.24 5.66,18.51 8.49,27.75 0.22,0.68 1.31,0.41 1.08,-0.3 -3.05,-9.95 -6.07,-19.93 -9.12,-29.88 -1.47,-4.87 -2.98,-9.73 -4.45,-14.59 -0.75,-2.51 -1.51,-4.98 -2.26,-7.48 -0.49,-1.54 -1.06,-2.92 -2.45,-3.82 -0.33,-0.22 -0.86,0.08 -0.86,0.49 0.12,2.29 0.27,4.61 0.39,6.89 0.37,-0.04 0.75,-0.12 1.09,-0.15 -0.53,-3.22 -2.11,-6.03 -4.55,-8.19 -0.38,-0.34 -0.94,-0.11 -0.98,0.41 -0.09,12.01 1.84,23.95 5.76,35.32 0.37,-0.11 0.71,-0.19 1.09,-0.3 -7.73,-21.96 -15.41,-43.87 -23.14,-65.83 -0.18,-0.49 -0.93,-0.56 -1.08,0 -1.79,6.93 -1.11,14.15 1.94,20.58 0.27,0.56 1.28,0.15 1.01,-0.45 -1.28,-3.21 -3.27,-5.94 -6.01,-8.11 -0.37,-0.3 -0.97,-0.11 -0.97,0.41 0.09,13.51 3.64,26.83 10.3,38.61 0.3,-0.23 0.6,-0.45 0.9,-0.68 -0.68,-0.86 -1.36,-1.72 -2.07,-2.61 -0.3,-0.38 -1.01,-0.08 -0.98,0.41 0.88,7.48 3.52,14.55 7.76,20.76 0.38,0.52 1.13,0.18 1.02,-0.46 -0.19,-1.04 -1.43,-1.41 -2.29,-0.78 -1.58,1.13 -0.04,3.78 0.53,5.05 2.14,4.75 5.34,8.9 9.28,12.3 0.79,0.41 1.58,-0.38 1.01,-0.82z"/>
   <path fill="#E8E8E8" fill-rule="nonzero" d="M124.51 320.26c-0.5,-7.03 12.3,-3.01 15.86,-2.34 5.85,1.07 11.67,2.15 17.52,3.22 11.66,2.15 23.37,4.31 35.03,6.46 0.72,0.15 1.01,-0.94 0.3,-1.09 -13.39,-2.48 -26.74,-4.93 -40.14,-7.42 -6.56,-1.22 -13.12,-2.45 -19.69,-3.63 -2.36,-0.45 -5.1,-0.93 -7.31,0.31 -1.69,0.9 -2.81,2.55 -2.66,4.49 0.01,0.71 1.17,0.71 1.09,0z"/>
   <path fill="#E8E8E8" fill-rule="nonzero" d="M185.16 326.38c3.9,0.4 6.29,-3.31 9.33,-5.11 2.58,-1.5 4.83,-0.34 7.5,0.18 2.96,0.59 6,0.66 9,0.28 0.71,-0.08 0.71,-1.2 0,-1.12 -3.38,0.42 -6.75,0.27 -10.05,-0.55 -1.99,-0.52 -3.79,-1.15 -5.78,-0.36 -3.52,1.35 -5.91,6 -10,5.55 -0.72,-0.07 -0.71,1.05 0,1.13z"/>
   <path fill="#E8E8E8" fill-rule="nonzero" d="M256.79 398.22c8.99,-3.15 18.06,-6.31 27.36,-8.57 9.71,-2.34 19.49,-3.29 29.47,-3.01 9.86,0.29 19.65,1.39 29.48,2.27 9.86,0.92 19.72,1.81 29.59,2.73 11.32,1.03 22.69,2.06 34.01,3.12 0.72,0.08 0.71,-1.05 0,-1.12 -20.21,-1.84 -40.43,-3.68 -60.68,-5.55 -19.47,-1.77 -39.05,-4.39 -58.43,-0.36 -10.64,2.23 -20.91,5.84 -31.14,9.41 -0.64,0.22 -0.34,1.31 0.34,1.08z"/>
   <path fill="#E8E8E8" fill-rule="nonzero" d="M296.36 361.34c6.71,-1.44 13.01,-4.25 19.34,-6.81 6.79,-2.71 13.64,-4.59 20.92,-5.23 7.35,-0.65 14.74,-0.29 22.05,0.15 7.35,0.43 14.7,0.95 22.09,1.46 8.59,0.62 17.21,1.32 25.8,2.05 0.71,0.08 0.71,-1.05 0,-1.12 -15.23,-1.32 -30.45,-2.46 -45.72,-3.41 -14.51,-0.91 -28.8,-1.26 -42.63,3.89 -7.34,2.74 -14.46,6.23 -22.19,7.89 -0.63,0.19 -0.37,1.28 0.34,1.13z"/>
   <path fill="#E8E8E8" fill-rule="nonzero" d="M382.73 318.05c5.36,-4.09 11.01,-8.1 17.01,-11.18 2.92,-1.5 6.07,-2.71 9.37,-2.97 3.56,-0.31 7.12,0.4 10.61,0.84 7.09,0.85 14.21,1.36 21.34,1.8 4.73,0.29 10.73,0.95 14.06,-3.17 0.45,-0.56 -0.34,-1.34 -0.79,-0.78 -3.78,4.68 -11.77,2.94 -16.95,2.61 -7.12,-0.48 -14.17,-1.14 -21.26,-2.03 -3.04,-0.37 -6.04,-0.66 -9.08,-0.09 -3,0.52 -5.81,1.73 -8.47,3.15 -5.77,3.08 -11.24,6.91 -16.44,10.88 -0.53,0.41 0.04,1.39 0.6,0.94z"/>
   <path fill="#E8E8E8" fill-rule="nonzero" d="M176.29 312.21c5.31,-4.02 10.67,-7.99 15.99,-12 5.09,-3.83 9.85,-7.84 16.52,-8.19 6.3,-0.31 12.75,0.39 19.02,0.91 6.75,0.55 13.46,1.28 20.14,2.21 5.62,0.78 12.34,2.86 17.66,-0.07 0.64,-0.34 0.07,-1.31 -0.56,-0.97 -2.74,1.5 -5.78,1.51 -8.81,1.14 -3.27,-0.41 -6.53,-0.97 -9.79,-1.41 -6.31,-0.85 -12.64,-1.55 -19.02,-2.06 -6.26,-0.52 -12.75,-1.26 -19.01,-0.87 -5.82,0.34 -10.12,3.35 -14.66,6.76 -6.03,4.5 -12.02,9.04 -18.05,13.54 -0.56,0.48 0,1.46 0.57,1.01z"/>
   <path fill="#E8E8E8" fill-rule="nonzero" d="M387.32 351.42c0.33,-2.47 0.82,-4.87 1.53,-7.26 0.33,-1.12 0.67,-2.25 1.12,-3.37 0.26,-0.68 0.97,-1.8 1.94,-1.54 0.49,0.15 0.72,1.83 0.76,2.17 0.07,0.6 0.9,0.78 1.09,0.15 1.75,-5.73 3.76,-12.02 9.16,-15.36 -0.3,-0.15 -0.57,-0.34 -0.87,-0.49 0.01,0.94 -0.03,1.91 -0.03,2.85 0,0.52 0.79,0.78 1.05,0.3 3.33,-6.93 6.95,-14.2 13.7,-18.4 -0.27,-0.22 -0.57,-0.41 -0.83,-0.63 -3.36,8.72 -7.28,17.22 -11.73,25.46 -0.3,0.53 0.45,1.2 0.9,0.67 2.51,-2.99 5.05,-5.99 8.35,-8.17 -0.26,-0.26 -0.53,-0.52 -0.79,-0.78 -4.15,8.76 -8.67,17.3 -13.65,25.62 -0.37,0.63 0.61,1.19 0.98,0.56 4.94,-8.32 9.5,-16.86 13.64,-25.62 0.23,-0.45 -0.26,-1.12 -0.78,-0.79 -3.38,2.25 -6,5.29 -8.58,8.36 0.3,0.23 0.6,0.45 0.9,0.67 4.49,-8.31 8.45,-16.89 11.85,-25.72 0.19,-0.45 -0.45,-0.86 -0.83,-0.64 -6.93,4.32 -10.67,11.69 -14.1,18.81 0.33,0.11 0.71,0.19 1.05,0.3 0,-0.94 0.03,-1.91 0.03,-2.85 0,-0.41 -0.49,-0.71 -0.86,-0.48 -5.62,3.49 -7.83,10 -9.65,16.03 0.37,0.04 0.75,0.11 1.09,0.15 -0.2,-1.91 -1.93,-5.16 -4.02,-2.73 -1.05,1.24 -1.46,3.26 -1.91,4.8 -0.74,2.47 -1.26,5.01 -1.63,7.6 -0.04,0.74 1.01,1.04 1.12,0.33z"/>
   <path fill="#E8E8E8" fill-rule="nonzero" d="M125.21 288.68c2.92,-1.58 5.88,-3.16 9.11,-4.02 3.41,-0.91 6.78,-0.61 10.2,-0.17 6.79,0.89 13.57,1.77 20.33,2.66 0.71,0.11 0.71,-1.01 -0.01,-1.12 -7.23,-0.96 -14.51,-2 -21.75,-2.85 -3.34,-0.4 -6.53,-0.4 -9.75,0.54 -3.07,0.91 -5.92,2.44 -8.73,3.95 -0.64,0.41 -0.04,1.34 0.6,1.01z"/>
   <path fill="#E8E8E8" fill-rule="nonzero" d="M352.91 34.47c2.7,-2.29 6.48,-1.84 9.45,-0.39 2.25,1.08 4.09,3.29 6.72,3.4 2.43,0.07 4.46,-1.58 6.52,-2.67 1.38,-0.71 2.81,-1.2 4.38,-0.87 1.69,0.33 3.15,1.31 4.69,1.98 5.07,2.2 8.44,-0.88 12.71,-3.32 1.2,-0.67 2.47,-1.27 3.86,-1.39 1.76,-0.15 3.34,0.63 4.92,1.3 2.47,1.05 4.35,1.46 6.86,0.44 2.58,-1.01 4.68,-0.87 7.27,0.07 1.65,0.59 3.23,1.34 4.96,1.71 2.58,0.59 5.36,0.44 7.31,-1.55 0.52,-0.52 -0.31,-1.31 -0.79,-0.78 -2.51,2.55 -6.34,1.35 -9.23,0.24 -2.92,-1.12 -5.93,-2.31 -9.04,-1.15 -1.95,0.75 -3.26,1.28 -5.36,0.57 -1.42,-0.48 -2.74,-1.27 -4.2,-1.68 -2.21,-0.67 -4.28,-0.29 -6.3,0.73 -2.32,1.16 -4.34,3 -6.78,3.97 -3.22,1.28 -5.74,-0.4 -8.67,-1.63 -2.13,-0.89 -4.16,-1.04 -6.3,-0.1 -2.58,1.16 -5.09,3.71 -8.13,2.63 -1.61,-0.56 -2.89,-1.87 -4.35,-2.69 -1.24,-0.67 -2.59,-1.15 -3.98,-1.41 -2.66,-0.48 -5.25,-0.03 -7.35,1.73 -0.52,0.56 0.3,1.35 0.83,0.86z"/>
   <path fill="#E8E8E8" fill-rule="nonzero" d="M366.45 60.01c0.71,0 0.71,-1.13 0,-1.12 -0.71,0 -0.71,1.12 0,1.12z"/>
   <path fill="#E8E8E8" fill-rule="nonzero" d="M373.96 64.08c1.75,-3.19 5.92,-1.66 8.51,-0.62 2.59,1.05 4.91,1.68 7.65,0.74 2.25,-0.79 4.27,-2.29 6.59,-2.82 3.23,-0.75 5.07,1.98 8,2.61 4.57,1 9.18,-4.1 13.49,-1.97 1.2,0.6 2.03,1.38 3.45,1.27 1.32,-0.08 2.52,-0.72 3.79,-1.02 3.56,-0.83 7.28,-0.2 10.47,1.56 0.63,0.33 1.19,-0.64 0.56,-0.98 -2.03,-1.12 -4.21,-1.79 -6.49,-2.01 -1.17,-0.11 -2.37,-0.07 -3.53,0.12 -1.39,0.19 -2.66,0.79 -4.01,1.05 -1.84,0.34 -2.63,-0.55 -4.13,-1.19 -0.75,-0.3 -1.57,-0.44 -2.36,-0.41 -1.87,0.08 -3.67,0.87 -5.4,1.51 -2.21,0.83 -4.57,1.62 -6.82,0.5 -1.92,-0.93 -3.42,-2.35 -5.67,-2.35 -4.65,0.04 -7.9,4.5 -12.82,3.16 -3.64,-1 -9.49,-4.55 -12.18,0.25 -0.42,0.67 0.56,1.23 0.9,0.6z"/>
   <path fill="#E8E8E8" fill-rule="nonzero" d="M337.65 108.93c2.66,-2.1 5.7,-1.99 8.63,-0.65 1.61,0.74 3.34,1.45 5.02,0.44 0.98,-0.6 1.61,-1.54 2.78,-1.88 1.23,-0.37 2.55,-0.11 3.75,0.18 2.13,0.53 4.2,1.46 6.41,1.6 2.63,0.19 5.03,-0.94 7.57,-1.21 2.74,-0.26 4.66,1.38 7.21,1.75 2.47,0.33 4.38,-1.65 6.86,-1.28 3,0.44 5.96,1.45 8.93,2.19 0.71,0.19 1.01,-0.9 0.29,-1.08 -3.11,-0.79 -6.34,-1.98 -9.52,-2.31 -2.7,-0.29 -4.65,1.92 -7.35,1.1 -2.52,-0.75 -4.32,-1.83 -7.02,-1.45 -2.88,0.42 -5.51,1.54 -8.47,0.91 -2.29,-0.48 -4.5,-1.56 -6.87,-1.71 -0.86,-0.03 -1.76,0.04 -2.58,0.38 -1.05,0.41 -1.61,1.27 -2.59,1.84 -2.25,1.31 -5.29,-1.45 -7.69,-1.64 -2.28,-0.18 -4.38,0.61 -6.18,2 -0.56,0.48 0.26,1.27 0.82,0.82z"/>
   <path fill="#E8E8E8" fill-rule="nonzero" d="M122.54 27.62c0.71,0 0.71,-1.12 0,-1.12 -0.72,0 -0.71,1.12 0,1.12z"/>
   <path fill="#E8E8E8" fill-rule="nonzero" d="M125.84 28.48c0.67,-3.34 5.1,-1.21 6.71,-0.2 1.84,1.16 3.79,2.2 6.04,1.56 2.44,-0.71 4.09,-2.81 6.79,-2.97 2.54,-0.11 5.02,1.04 7.42,1.79 2.07,0.63 4.24,1.08 6.38,0.55 2.51,-0.6 4.64,-2.37 7.19,-2.82 5.03,-0.87 9.57,3.2 14.67,1.62 0.67,-0.22 0.41,-1.31 -0.3,-1.08 -5.33,1.69 -10.4,-3.02 -15.79,-1.32 -2.78,0.86 -5.1,2.81 -8.14,2.7 -2.81,-0.1 -5.36,-1.45 -8.02,-2.12 -2.1,-0.52 -4.24,-0.66 -6.27,0.28 -1.16,0.52 -2.17,1.38 -3.33,1.95 -1.91,0.9 -3.52,0.38 -5.25,-0.59 -1.88,-1.09 -3.49,-2.35 -5.78,-2.16 -1.61,0.11 -3.04,0.94 -3.33,2.58 -0.19,0.64 0.9,0.94 1.01,0.23z"/>
   <path fill="#E8E8E8" fill-rule="nonzero" d="M129.61 246.98c4.46,-1.88 8.96,1.44 13.46,1.66 2.33,0.11 4.58,-0.45 6.86,-0.91 2.89,-0.56 5.36,-0.6 8.14,0.55 1.69,0.71 3.23,1.16 4.95,0.48 0.98,-0.38 1.8,-1.01 2.77,-1.35 1.09,-0.38 2.22,-0.45 3.38,-0.46 4.01,0.07 8.03,1.45 11.85,-0.35 0.63,-0.3 0.07,-1.27 -0.57,-0.97 -4.08,1.91 -8.62,-0.18 -12.93,0.28 -2.07,0.23 -3.41,1.43 -5.33,1.99 -2.28,0.68 -4.53,-1.26 -6.79,-1.6 -4.83,-0.74 -9.4,1.96 -14.28,1 -3.9,-0.78 -7.84,-3.06 -11.82,-1.37 -0.63,0.27 -0.33,1.35 0.31,1.05z"/>
   <path fill="#0A3871" fill-rule="nonzero" d="M48.44 191.99c3.28,-0.01 5.92,-2.66 5.92,-5.92 -0.01,-3.27 -2.66,-5.91 -5.94,-5.91 -3.27,0.01 -5.92,2.66 -5.91,5.92 0,3.27 2.66,5.91 5.93,5.91z"/>
   <path fill="#0A3871" fill-rule="nonzero" d="M393.26 150.79c2.3,0 4.16,-1.87 4.15,-4.16 0,-2.3 -1.87,-4.15 -4.16,-4.15 -2.3,0.01 -4.16,1.87 -4.16,4.16 0,2.3 1.87,4.15 4.17,4.15z"/>
   <path fill="#0A3871" fill-rule="nonzero" d="M355.56 6.14c1.7,0 3.08,-1.38 3.07,-3.08 0,-1.69 -1.38,-3.06 -3.08,-3.06 -1.7,0 -3.07,1.38 -3.07,3.07 0.01,1.7 1.38,3.07 3.08,3.07z"/>
   <path fill="#0A3871" fill-rule="nonzero" d="M220.55 272.47c2.11,-0.01 3.82,-1.72 3.82,-3.83 -0.01,-2.1 -1.72,-3.81 -3.84,-3.81 -2.11,0.01 -3.82,1.72 -3.82,3.83 0.01,2.1 1.72,3.81 3.84,3.81z"/>
   <path fill="#0A3871" fill-rule="nonzero" d="M43.87 55.96c2.43,0 4.39,-1.96 4.38,-4.38 0,-2.42 -1.97,-4.38 -4.39,-4.37 -2.42,0 -4.39,1.97 -4.38,4.38 0,2.42 1.97,4.38 4.39,4.37z"/>
   <path fill="#0A3871" fill-rule="nonzero" d="M195.39 209.34c1.39,0 2.52,-1.13 2.51,-2.51 0,-1.39 -1.13,-2.51 -2.51,-2.51 -1.39,0.01 -2.51,1.13 -2.51,2.52 0,1.38 1.13,2.5 2.51,2.5z"/>
   <path fill="#0A3871" fill-rule="nonzero" d="M432.57 230.29c2.12,-0.01 3.83,-1.72 3.82,-3.83 0,-2.11 -1.72,-3.81 -3.83,-3.81 -2.11,0.01 -3.82,1.72 -3.82,3.83 0.01,2.1 1.72,3.81 3.83,3.81z"/>
   <path fill="#0A3871" fill-rule="nonzero" d="M15.76 294.05c1.57,0 2.85,-1.27 2.84,-2.84 0,-1.57 -1.28,-2.85 -2.85,-2.84 -1.57,0 -2.85,1.27 -2.85,2.85 0.01,1.57 1.29,2.84 2.86,2.83z"/>
   <path fill="white" fill-rule="nonzero" d="M131.95 72.85c-3.25,6.63 -6.54,13.26 -9.79,19.89 13.53,18.05 27.05,36.07 40.58,54.12 3.48,-5.28 6.92,-10.68 10.4,-16.11 8.19,-12.89 16.01,-25.62 23.49,-38.25 -2.56,-6.47 -5.16,-12.97 -7.72,-19.44 -1.65,-0.86 -3.3,-1.68 -4.95,-2.54 -15.98,0.06 -31.95,0.13 -47.89,0.19 -1.42,0.75 -2.77,1.46 -4.12,2.14z"/>
   <path fill="black" fill-rule="nonzero" d="M122.61 93.04c2.84,-6.26 5.75,-12.48 8.74,-18.66 0.3,-0.63 -0.64,-1.23 -0.97,-0.55 -2.99,6.17 -5.91,12.39 -8.75,18.65 -0.3,0.63 0.68,1.23 0.98,0.56z"/>
   <path fill="black" fill-rule="nonzero" d="M121.86 93.71c13.23,18.05 26.72,35.88 40.47,53.56 0.45,0.56 1.24,-0.23 0.79,-0.79 -13.68,-17.6 -27.1,-35.35 -40.29,-53.33 -0.41,-0.56 -1.39,0 -0.97,0.56z"/>
   <path fill="black" fill-rule="nonzero" d="M131.61 73.75c1.58,-0.83 3.11,-1.69 4.69,-2.52 0.63,-0.33 0.07,-1.31 -0.57,-0.97 -1.57,0.83 -3.11,1.69 -4.68,2.52 -0.68,0.37 -0.07,1.31 0.56,0.97z"/>
   <path fill="black" fill-rule="nonzero" d="M137.23 71.31c11.7,-0.02 23.44,-0.04 35.14,-0.06 0.71,0 0.71,-1.12 0,-1.12 -11.7,0.02 -23.44,0.04 -35.14,0.05 -0.71,0.01 -0.71,1.13 0,1.13z"/>
   <path fill="black" fill-rule="nonzero" d="M197.16 92.39c-2.38,-6.24 -4.83,-12.42 -7.35,-18.62 -0.26,-0.68 -1.35,-0.38 -1.08,0.3 2.52,6.17 4.97,12.38 7.34,18.62 0.26,0.68 1.35,0.37 1.09,-0.3z"/>
   <path fill="black" fill-rule="nonzero" d="M195.92 92.95c-10.96,17.98 -22.14,35.85 -33.55,53.57 -0.41,0.6 0.56,1.16 0.97,0.56 11.41,-17.72 22.6,-35.55 33.55,-53.57 0.38,-0.6 -0.6,-1.19 -0.97,-0.56z"/>
   <path fill="black" fill-rule="nonzero" d="M189.14 72.61c-1.32,-0.82 -2.63,-1.68 -3.95,-2.5 -0.6,-0.38 -1.16,0.56 -0.56,0.97 1.32,0.82 2.63,1.68 3.94,2.5 0.64,0.41 1.2,-0.56 0.57,-0.97z"/>
   <path fill="black" fill-rule="nonzero" d="M183.92 70c-9.79,0.01 -19.58,0.03 -29.33,0.04 -0.71,0 -0.71,1.13 0.01,1.13 9.78,-0.02 19.57,-0.04 29.32,-0.05 0.71,0 0.71,-1.12 0,-1.12z"/>
   <path fill="black" fill-rule="nonzero" d="M123.06 93.6c6.71,-2.9 13.41,-5.79 20.12,-8.68 0.68,-0.3 0.07,-1.24 -0.56,-0.97 -6.71,2.89 -13.42,5.78 -20.13,8.67 -0.63,0.3 -0.07,1.28 0.57,0.98z"/>
   <path fill="black" fill-rule="nonzero" d="M131.8 73.41c4.13,0.63 8.18,1.52 12.19,2.64 0.71,0.18 1.01,-0.9 0.3,-1.09 -4.01,-1.15 -8.07,-2 -12.19,-2.63 -0.71,-0.12 -1.05,0.97 -0.3,1.08z"/>
   <path fill="black" fill-rule="nonzero" d="M143.69 75.86c0.91,2.81 1.7,5.61 2.38,8.49 0.15,0.71 1.24,0.41 1.08,-0.3 -0.68,-2.88 -1.47,-5.68 -2.37,-8.49 -0.23,-0.67 -1.31,-0.41 -1.09,0.3z"/>
   <path fill="black" fill-rule="nonzero" d="M145.42 75.97c10.05,-0.01 20.06,-0.03 30.11,-0.05 0.71,0 0.71,-1.12 0,-1.12 -10.05,0.02 -20.07,0.03 -30.11,0.05 -0.72,0 -0.72,1.12 0,1.12z"/>
   <path fill="black" fill-rule="nonzero" d="M175.04 76.15c-0.37,2.06 -0.74,4.15 -1.11,6.21 -0.11,0.71 0.97,1.01 1.08,0.3 0.38,-2.06 0.75,-4.16 1.12,-6.21 0.11,-0.72 -0.98,-1.01 -1.09,-0.3z"/>
   <path fill="black" fill-rule="nonzero" d="M146.67 84.43c8.77,-0.02 17.55,-0.03 26.36,-0.05 0.71,0 0.71,-1.12 0,-1.12 -8.78,0.02 -17.55,0.03 -26.36,0.04 -0.72,0.01 -0.71,1.13 0,1.13z"/>
   <path fill="black" fill-rule="nonzero" d="M176.62 75.92c4.08,-0.87 8.13,-1.73 12.22,-2.6 0.71,-0.15 0.41,-1.24 -0.3,-1.09 -4.09,0.87 -8.14,1.74 -12.23,2.61 -0.71,0.15 -0.41,1.23 0.31,1.08z"/>
   <path fill="black" fill-rule="nonzero" d="M174.75 84.04c3.79,0.6 7.32,2.72 10.77,4.33 3.68,1.71 7.32,3.43 11,5.14 0.64,0.3 1.24,-0.67 0.56,-0.97 -3.9,-1.83 -7.77,-3.62 -11.67,-5.44 -3.3,-1.57 -6.72,-3.55 -10.36,-4.14 -0.71,-0.11 -1.01,0.97 -0.3,1.08z"/>
   <path fill="black" fill-rule="nonzero" d="M147.01 86.15c4.91,20.05 9.78,40.14 14.68,60.19 0.19,0.71 1.24,0.41 1.09,-0.3 -4.91,-20.05 -9.78,-40.14 -14.68,-60.19 -0.19,-0.71 -1.28,-0.41 -1.09,0.3z"/>
   <path fill="black" fill-rule="nonzero" d="M173.18 87.45c-4.54,19.32 -8.29,38.86 -11.19,58.51 -0.11,0.71 0.98,1.01 1.09,0.3 2.89,-19.65 6.65,-39.16 11.19,-58.51 0.19,-0.71 -0.9,-1.01 -1.09,-0.3z"/>
   <path fill="black" fill-rule="nonzero" d="M173.5 49.99c1.68,-4.3 2.61,-8.83 2.75,-13.47 0.04,-0.72 -1.09,-0.71 -1.12,0 -0.15,4.53 -1.08,8.94 -2.72,13.17 -0.26,0.68 0.83,0.94 1.09,0.3z"/>
   <path fill="black" fill-rule="nonzero" d="M181.19 50.73c3.59,-4.09 7.64,-7.69 12.17,-10.72 0.6,-0.42 0.03,-1.39 -0.57,-0.98 -4.6,3.08 -8.76,6.75 -12.39,10.91 -0.49,0.53 0.3,1.31 0.79,0.79z"/>
   <path fill="black" fill-rule="nonzero" d="M188.59 57.64c4.64,-1.39 9.44,-1.92 14.28,-1.56 0.71,0.04 0.71,-1.08 0,-1.12 -4.95,-0.37 -9.83,0.17 -14.59,1.6 -0.67,0.22 -0.41,1.31 0.31,1.08z"/>
   <path fill="#E8E8E8" fill-rule="nonzero" d="M109.53 31.53c0.46,7.41 -3.69,14.49 -10.36,17.72 -0.37,0.19 -0.33,0.75 0.01,0.97 6.11,3.66 8.94,10.39 10.56,17.02 0.19,0.71 1.24,0.4 1.09,-0.31 -1.7,-6.92 -4.71,-13.91 -11.09,-17.68 0,0.34 0,0.64 0,0.97 7.01,-3.41 11.42,-10.94 10.92,-18.69 -0.04,-0.71 -1.17,-0.71 -1.13,0z"/>
   <path fill="#E8E8E8" fill-rule="nonzero" d="M109.95 31.53c-0.48,7.79 3.96,15.3 10.98,18.66 -0.01,-0.34 -0.01,-0.64 -0.01,-0.97 -6.4,3.82 -9.39,10.83 -11.07,17.79 -0.18,0.71 0.9,1.01 1.09,0.3 1.6,-6.67 4.4,-13.44 10.55,-17.12 0.33,-0.19 0.37,-0.79 0,-0.97 -6.68,-3.21 -10.9,-10.28 -10.46,-17.69 0.08,-0.71 -1.05,-0.71 -1.08,0z"/>
   <path fill="black" fill-rule="nonzero" d="M292.98 312.17c1.32,-0.57 3.11,-1.39 5.17,-2.56 3.45,-1.91 5.18,-2.89 6.22,-4.42 1.35,-2.02 0.82,-3.11 2.58,-5.13 0.26,-0.34 1.5,-1.65 3.11,-2.36 2.77,-1.17 5.36,0.21 9.68,1.74 3.98,1.41 7.09,2.08 13.32,3.46 2.47,0.55 5.47,1.11 9.82,2.45 1.24,0.37 2.22,0.71 2.89,0.93 0.08,0.79 0.12,2.81 -1.19,4.64 -0.6,0.83 -1.42,1.5 -2.73,2.1 -3.04,1.43 -5.93,1.17 -8.36,1.07 -5.25,-0.22 -3.08,0.52 -15.45,0.77 -2.7,0.04 -4.91,0.04 -6.45,0.05 -1.91,1.31 -3.82,2.66 -5.77,4.05 -3.3,2.4 -6.44,4.8 -9.44,7.16 -1.13,-4.64 -2.26,-9.31 -3.4,-13.95z"/>
   <path fill="white" fill-rule="nonzero" d="M277.27 264.29c-2.7,1.43 -3,1.95 -13.03,10.5 -15.66,13.31 -17.38,14.03 -31.57,26.44 -13.6,11.84 -16.14,14.8 -18.72,18.7 -6.44,9.85 -7.85,18.09 -8.25,22.09 -0.56,5.39 -1.3,12.88 3.48,18.78 3,3.7 6.91,5.23 8.22,5.72 3.94,1.49 7.16,1.29 12.98,0.87 7.72,-0.57 13.6,-2.08 15.93,-2.72 2.55,-0.71 8.47,-2.48 15.89,-6.16 6.97,-3.46 9.96,-6 19.48,-12.42 4.23,-2.85 10.49,-7.01 18.35,-11.82 0.48,-3.74 0.07,-6.66 -0.35,-8.49 -0.98,-4.34 -2.97,-7.33 -5.19,-10.62 -1.8,-2.69 -3.53,-4.75 -4.74,-6.09 2.81,-2.14 6.48,-5.22 10.34,-9.34 2.58,-2.77 6.66,-7.19 10.06,-13.41 4.19,-7.64 8.38,-15.36 5.67,-20.67 -4.25,-8.34 -24.42,-8.68 -38.55,-1.36z"/>
   <path fill="#9B9797" fill-rule="nonzero" fill-opacity="0.180392" d="M310.88 268.32c-2.13,4.94 -5.65,11.94 -11.26,19.44 -8.16,10.83 -16.4,16.83 -28.83,25.72 -35.17,25.13 -44.61,30.87 -43.56,33.26 1.43,3.25 21.26,-2.62 24.14,-3.48 21.07,-6.25 36.58,-15.85 46.28,-22.87 -2.48,-3.77 -4.96,-7.55 -7.45,-11.29 3.04,-2.17 7.23,-5.62 11.16,-10.75 2.17,-2.82 5.47,-7.16 7.59,-13.71 2.17,-6.52 2.23,-12.32 1.93,-16.32z"/>
   <path fill="black" fill-rule="nonzero" d="M277.12 264.26c-13.33,9.93 -26.33,20.36 -38.84,31.27 -5.99,5.21 -11.98,10.42 -17.6,16.01 -4.97,4.94 -9.62,10.42 -12.42,16.93 -2.91,6.74 -3.72,14.53 -3,21.82 0.61,6.03 2.83,12.09 8.35,15.22 5.78,3.25 13.05,2.9 19.43,2.21 7.83,-0.79 15.56,-2.71 22.86,-5.68 16.3,-6.65 29.07,-19.06 44.47,-27.28 0.64,-0.34 0.07,-1.31 -0.56,-0.97 -12.85,6.87 -23.79,16.76 -36.68,23.63 -6.74,3.61 -14.01,6.24 -21.51,7.86 -6.93,1.47 -14.73,2.6 -21.78,1.27 -3.31,-0.63 -6.49,-1.97 -8.86,-4.44 -2.29,-2.43 -3.54,-5.61 -4.18,-8.86 -1.4,-7.07 -0.77,-15.08 1.54,-21.9 2.32,-6.81 6.84,-12.55 11.79,-17.64 5.12,-5.29 10.74,-10.16 16.25,-15 13.29,-11.69 27.07,-22.87 41.3,-33.45 0.57,-0.45 0.04,-1.42 -0.56,-1z"/>
   <path fill="black" fill-rule="nonzero" d="M240.49 341.03c12.3,-4.77 23.42,-11.9 33.98,-19.7 5.21,-3.83 10.34,-7.8 15.44,-11.78 5.01,-3.93 9.81,-8.1 13.7,-13.15 0.45,-0.57 -0.53,-1.13 -0.98,-0.56 -3.96,5.17 -8.94,9.33 -14.04,13.34 -5.02,3.94 -10.07,7.84 -15.24,11.63 -10.34,7.57 -21.16,14.55 -33.16,19.17 -0.67,0.23 -0.37,1.31 0.3,1.05z"/>
   <path fill="black" fill-rule="nonzero" d="M289.34 309.44c7.25,6.05 11.09,15.44 10.09,24.83 -0.07,0.72 1.05,0.71 1.13,0 0.99,-9.65 -3,-19.38 -10.43,-25.62 -0.53,-0.48 -1.31,0.31 -0.79,0.79z"/>
   <path fill="black" fill-rule="nonzero" d="M299.34 323.83c2.14,-0.64 4.01,-2.44 5.81,-3.71 2.24,-1.58 4.45,-3.15 6.7,-4.73 0.6,-0.41 0.04,-1.38 -0.56,-0.97 -2.02,1.43 -4.08,2.89 -6.11,4.31 -1.87,1.32 -3.93,3.34 -6.14,4.02 -0.71,0.19 -0.41,1.27 0.3,1.08z"/>
   <path fill="black" fill-rule="nonzero" d="M293.14 312.69c4.23,-1.76 8.13,-4.17 11.65,-7.13 0.56,-0.49 -0.27,-1.27 -0.79,-0.78 -3.34,2.85 -7.08,5.14 -11.13,6.83 -0.67,0.3 -0.37,1.38 0.27,1.08z"/>
   <path fill="black" fill-rule="nonzero" d="M304.37 305.08c0.72,0 0.71,-1.13 0,-1.13 -0.71,0 -0.71,1.13 0,1.13z"/>
   <path fill="black" fill-rule="nonzero" d="M305.72 303.73c0.64,-1.5 1.31,-3.15 2.51,-4.31 1.61,-1.57 3.56,-1.35 5.62,-0.91 3.83,0.86 7.58,2.05 11.33,3.13 3.49,0.96 6.98,1.82 10.58,2.23 2.1,0.22 3.86,0.48 5.74,1.41 1.39,0.67 2.59,1.34 4.12,1.49 0.72,0.07 0.72,-1.05 0,-1.12 -2.06,-0.19 -3.67,-1.61 -5.63,-2.24 -1.95,-0.63 -4.12,-0.59 -6.15,-0.93 -4.42,-0.7 -8.74,-2.04 -13.01,-3.31 -2.11,-0.59 -4.21,-1.19 -6.34,-1.67 -1.58,-0.33 -3.23,-0.74 -4.81,-0.25 -2.73,0.82 -4.04,3.75 -5.05,6.18 -0.26,0.67 0.83,0.97 1.09,0.3z"/>
   <path fill="black" fill-rule="nonzero" d="M311.7 316.22c8.03,-1.21 15.98,-1.41 24.08,-1.58 2.81,-0.04 5.81,-0.38 8.05,-2.22 1.91,-1.57 3,-3.86 2.47,-6.29 -0.15,-0.71 -1.24,-0.41 -1.09,0.3 0.72,3.41 -2.35,5.92 -5.39,6.67 -3.11,0.76 -6.48,0.39 -9.67,0.47 -6.3,0.12 -12.53,0.65 -18.75,1.6 -0.71,0.07 -0.37,1.16 0.3,1.05z"/>
   <path fill="black" fill-rule="nonzero" d="M340.15 308.72c2.77,-1.98 5.58,-3.97 8.36,-5.96 0.18,-1.27 0.78,-4.04 3.06,-6.41 0.67,-0.71 2.25,-2.36 4.61,-2.81 2.47,-0.49 4.39,0.63 6.53,1.6 3.45,1.57 6.79,2.16 13.39,3.42 5.21,0.97 7.84,1.45 11.59,1.25 5.1,-0.3 8.73,-1.66 10.91,0.47 0.23,0.23 1.17,1.24 1.09,2.47 -0.11,1.57 -1.79,2.59 -3.14,3.37 -5.88,3.38 -9.18,4.36 -9.18,4.36 -8.32,2.45 -12.52,3.69 -16.12,3.99 -2.93,0.23 -7.09,0.35 -12.11,-0.43 -1.46,5.02 -5.88,8.25 -10.04,7.99 -5.36,-0.33 -10.32,-6.34 -8.95,-13.31z"/>
   <path fill="white" fill-rule="nonzero" d="M286.25 275.73c0.82,-2.51 2.35,-5.69 5.24,-6.75 1.87,-0.67 3.6,-0.23 4.16,-0.08 3.49,0.86 10.65,-0.39 24.93,-2.84 7.09,-1.21 16.05,-2.99 26.36,-5.62 0.04,1.91 0,4.41 -0.1,7.33 -0.26,6.55 -0.92,11.49 -1.07,12.65 -0.63,4.64 -1.74,12.35 -5.14,21.72 -0.86,2.39 -1.72,4.38 -2.32,5.72 1.47,0.68 3.04,1.57 4.58,2.84 6.35,5.04 8.2,12.19 8.8,15.22 -0.9,1.09 -2.24,2.7 -3.96,4.53 -6.97,7.42 -13.41,11.59 -25.7,19.21 -7.57,4.68 -13.11,8.1 -21.99,13.35 -10.79,6.38 -19.52,11.34 -30.39,14.46 -2.7,0.79 -6.97,1.85 -12.37,1.29 -2.63,-0.26 -7.35,-0.73 -11.89,-4.02 -5.82,-4.18 -7.67,-10.32 -8.42,-13.01 -1.7,-6.02 -1.07,-11.67 0.49,-17.55 1.08,-4.12 5,-17.79 18.66,-33.19 2.73,-3.07 10.52,-10.01 26.02,-23.88 3.75,-3.33 6.82,-6.07 8.88,-7.87 -1.58,-1.2 -3.16,-2.35 -4.77,-3.51z"/>
   <path fill="#9B9797" fill-rule="nonzero" fill-opacity="0.180392" d="M337.23 265.28c-0.85,3.29 -2.23,8.05 -4.32,13.63 -19.09,50.7 -61.87,72.66 -58.38,78.12 2.56,4.04 26.99,-6.07 44.6,-16.69 13.19,-7.95 23,-16.46 29.55,-22.87 -1.05,-1.54 -2.67,-3.63 -5.11,-5.61 -2.36,-1.9 -4.62,-3.06 -6.31,-3.77 1.16,-1.68 2.7,-4.23 4,-7.49 0.86,-2.1 1.61,-4.34 2.58,-8.91 1.56,-7.23 2.19,-12.95 2.37,-14.75 0.45,-4.3 0.85,-9.88 0.76,-16.47 -3.26,1.58 -6.48,3.2 -9.74,4.81z"/>
   <path fill="black" fill-rule="nonzero" d="M346.41 260.44c0.05,7.07 -0.39,14.14 -1.35,21.18 -0.89,6.33 -2.01,12.84 -4.32,18.83 -2.5,6.48 -6.81,11.2 -12.01,15.66 -5.32,4.54 -10.68,9 -16.03,13.46 -6.14,5.14 -12.32,10.24 -18.46,15.38 -0.56,0.45 0.22,1.23 0.79,0.78 11.27,-9.37 22.54,-18.71 33.74,-28.19 4.94,-4.2 9.43,-8.55 12.12,-14.58 2.62,-5.84 3.88,-12.24 4.89,-18.53 1.26,-7.94 1.85,-15.95 1.76,-23.99 0,-0.75 -1.13,-0.75 -1.13,0z"/>
   <path fill="black" fill-rule="nonzero" d="M286.89 276.78c1.54,0.82 3.08,1.64 4.65,2.46 0.64,0.33 1.2,-0.64 0.56,-0.98 -1.53,-0.82 -3.07,-1.64 -4.65,-2.46 -0.64,-0.33 -1.2,0.64 -0.56,0.98z"/>
   <path fill="black" fill-rule="nonzero" d="M291.54 278.79c-13.33,10.87 -27.34,21.64 -38.45,34.83 -9.58,11.35 -17.47,25.73 -17.41,40.97 0.01,6.69 1.86,13.69 6.82,18.43 4.95,4.79 12.12,6.64 18.87,6.3 8.25,-0.43 16.08,-3.7 23.42,-7.3 7.87,-3.87 15.33,-8.45 22.82,-12.99 15.43,-9.38 32.67,-18.12 44.23,-32.4 0.45,-0.56 -0.34,-1.35 -0.78,-0.78 -9.7,11.99 -23.33,19.68 -36.33,27.56 -7.16,4.35 -14.24,8.78 -21.55,12.91 -7.15,4.05 -14.61,7.92 -22.52,10.21 -7.42,2.15 -15.7,2.61 -22.72,-1.08 -6.76,-3.51 -10.22,-10.32 -10.94,-17.72 -1.42,-14.97 6.1,-29.88 15.19,-41.27 11.34,-14.2 26.17,-25.52 40.18,-36.92 0.52,-0.42 -0.27,-1.2 -0.83,-0.75z"/>
   <path fill="black" fill-rule="nonzero" d="M338.05 308.31c7.06,3.36 11.98,10.01 13.16,17.72 0.11,0.71 1.2,0.41 1.08,-0.3 -1.17,-7.97 -6.36,-14.96 -13.64,-18.39 -0.67,-0.3 -1.24,0.68 -0.6,0.97z"/>
   <path fill="black" fill-rule="nonzero" d="M340.3 309.28c1.5,-0.6 2.7,-1.61 3.97,-2.58 1.5,-1.17 3.04,-2.29 4.54,-3.45 0.56,-0.45 -0.01,-1.43 -0.57,-0.98 -1.35,1.02 -2.69,2.03 -4.04,3.08 -1.31,1.01 -2.62,2.25 -4.2,2.85 -0.64,0.26 -0.37,1.35 0.3,1.08z"/>
   <path fill="black" fill-rule="nonzero" d="M349.37 302.8c0.74,-2.21 1.64,-4.39 2.84,-6.41 1.64,-2.77 4.12,-2.47 6.89,-1.77 4.32,1.08 8.45,2.72 12.8,3.69 8.44,1.85 17.1,2.48 25.73,1.9 0.71,-0.04 0.71,-1.16 -0.01,-1.12 -10.16,0.69 -20.4,-0.34 -30.23,-3.1 -2.36,-0.67 -4.65,-1.52 -7.01,-2.19 -1.8,-0.52 -3.94,-1.12 -5.82,-0.74 -1.68,0.34 -2.66,1.61 -3.48,3.03 -1.16,2.03 -2.05,4.2 -2.8,6.41 -0.22,0.67 0.86,0.97 1.09,0.3z"/>
   <path fill="black" fill-rule="nonzero" d="M351.01 320.87c2.81,-2.14 5.58,-4.28 8.39,-6.42 0.56,-0.44 0,-1.42 -0.56,-0.97 -2.81,2.14 -5.59,4.28 -8.39,6.42 -0.57,0.45 0,1.42 0.56,0.97z"/>
   <path fill="black" fill-rule="nonzero" d="M359.36 314.19c9.15,1.97 18.49,0.46 27.15,-2.85 3.93,-1.5 8.43,-3.19 11.8,-5.74 2.36,-1.76 2.69,-5.13 -0.42,-6.33 -0.68,-0.26 -0.98,0.83 -0.3,1.09 1.69,0.63 1.88,2.47 0.72,3.74 -0.56,0.64 -1.35,1.05 -2.1,1.5 -1.54,0.86 -3.11,1.65 -4.68,2.4 -3.34,1.58 -6.79,2.93 -10.35,3.99 -7.01,2.03 -14.36,2.71 -21.56,1.15 -0.67,-0.18 -0.97,0.9 -0.26,1.05z"/>
   <path fill="#0A3871" fill-rule="nonzero" d="M261.38 152.72c5.69,-4.72 14.19,-10.42 25.55,-13.81 5.32,-1.58 11.99,-3.54 20.84,-2.8 13.58,1.14 22.93,7.78 26.23,10.21 5.18,3.77 8.72,7.77 10.89,10.57 0.46,26.24 1.06,52.5 1.82,78.74 0.24,8.08 0.48,16.2 0.75,24.28 -5.32,3.3 -12.77,7.02 -22.22,9.21 -22.12,5.08 -40.54,-1.62 -48.01,-4.86 -0.05,-6.63 -0.48,-16.58 -2.52,-28.52 -3.33,-19.6 -8.48,-27.49 -11.73,-44.36 -1.63,-8.72 -3.19,-21.81 -1.6,-38.66z"/>
   <path fill="white" fill-rule="nonzero" d="M329.19 159.09c-1.84,2.02 -2.17,4.31 -2.05,13.06 0.09,9.21 0.59,15.49 0.9,22.79 0.24,5.28 0.43,9.47 0.33,14.93 -0.1,6.89 -0.54,12.54 -0.95,16.32 -3.67,4.12 -6.93,7.35 -9.36,9.67 -5.47,5.21 -11.42,10.83 -20.22,16.12 -3.49,2.07 -6.48,3.57 -8.51,4.51 -1.84,-0.3 -3.9,-0.74 -6.15,-1.3 -5.33,-1.34 -7.54,-2.53 -11.55,-2.53 -1.2,0.01 -4.99,0.01 -5.36,1.36 -0.34,1.12 1.76,2.88 3.41,3.74 1.54,0.78 2.22,0.55 3.76,1.26 1.72,0.82 2.85,2.02 3.53,2.92 -0.72,1.01 -1.8,2.54 -3,4.53 -1.38,2.32 -1.68,3.22 -3.29,5.99 -1.68,2.92 -2.54,4.38 -3.29,5.13 -1.16,1.09 -1.87,1.32 -7.08,3.64 -5.17,2.33 -6.07,2.86 -6.07,3.49 0,0.64 1.01,0.79 5.03,2.5 3.26,1.38 3.56,1.68 5.25,2.17 2.1,0.59 3.38,0.96 4.92,0.62 2.43,-0.49 4.01,-2.32 4.68,-3.3 0.34,0.3 1.16,0.94 2.25,0.97 0.86,0 1.57,-0.34 2.14,-0.79 2.36,-1.68 3.51,-4.79 5.83,-8.28 0.41,-0.6 1.87,-2.81 4.23,-5.28 1.46,-1.57 2.81,-2.74 3.78,-3.52 1.32,-0.31 3.26,-0.76 5.59,-1.43 9.03,-2.6 15.55,-5.72 21.02,-8.35 3.19,-1.54 6.78,-3.56 13.94,-7.58 6.22,-3.49 9.44,-5.44 12.28,-9.26 0.3,-0.41 1.84,-2.47 3.18,-5.51 0.41,-0.93 1.87,-4.27 2.65,-10.11 0.37,-2.58 0.37,-4 0.39,-12.08 0.06,-10.3 0.06,-9.06 0.06,-10.11 -0.06,-15.08 -0.85,-13.73 -1.13,-27.58 -0.04,-1.31 -0.08,-4.86 -1.18,-9.35 -1.17,-4.86 -2.64,-7.03 -3.46,-8.12 -1.05,-1.38 -2.33,-3.02 -4.51,-3.96 -3.98,-1.75 -9.26,-0.32 -11.99,2.72z"/>
   <path fill="#9B9797" fill-rule="nonzero" fill-opacity="0.250980" d="M341.22 156.34c0.9,2.95 2,7.22 2.76,12.38 0.91,6.25 1.26,13.13 -0.74,31.14 -1.66,15.04 -2.48,22.57 -4.64,29.6 -3.1,10.04 -5.33,17.34 -12.19,23.11 -4.42,3.72 -9.25,5.45 -18.96,8.87 -7.12,2.52 -13.23,4.02 -17.43,4.96 -2.99,4.05 -7.44,9.19 -13.77,14.06 -4.95,3.83 -9.71,6.45 -13.64,8.26 0.56,0.37 2.89,1.86 6.04,1.44 3.67,-0.49 5.66,-3.11 5.99,-3.6 0.72,0.53 1.77,1.09 2.93,0.9 2.4,-0.38 3.67,-3.79 4.3,-5.32 1.39,-3.19 4.15,-7.57 10.37,-12.37 4.12,-1.09 9.71,-2.75 16.19,-5.23 9.03,-3.49 15.1,-6.87 21.62,-10.51 10.46,-5.86 12.81,-8.26 14.53,-10.58 3.15,-4.23 4.45,-8.58 5.01,-10.48 1.01,-3.41 1.19,-7.23 1.55,-14.68 0.26,-5.54 0.25,-9.8 0.25,-13.02 -0.01,-5.54 -0.13,-9.66 -0.25,-13.21 -0.16,-5.16 -0.47,-11.23 -1.23,-18.48 -0.57,-5.28 -0.99,-7.38 -2.19,-9.73 -1.84,-3.74 -4.59,-6.13 -6.5,-7.51z"/>
   <path fill="black" fill-rule="nonzero" d="M328.62 158.94c-1.94,4.87 -2.16,10.11 -2.03,15.31 0.12,5.72 0.43,11.41 0.7,17.14 0.54,11.6 0.94,23.23 -0.43,34.8 -0.08,0.71 1.05,0.71 1.12,0 1.33,-11.3 1.02,-22.72 0.47,-34.06 -0.27,-5.61 -0.58,-11.22 -0.74,-16.87 -0.16,-5.43 -0.05,-10.89 2,-16.02 0.26,-0.68 -0.83,-0.97 -1.09,-0.3z"/>
   <path fill="black" fill-rule="nonzero" d="M329.03 225.21c-3.45,1.92 -6.22,4.69 -8.87,7.58 -2.89,3.11 -5.77,6.14 -8.99,8.92 -6.59,5.74 -14.01,10.46 -21.95,14.14 -0.68,0.3 -0.07,1.28 0.56,0.98 7.65,-3.54 14.8,-8.04 21.21,-13.47 3.18,-2.67 6.1,-5.59 8.91,-8.63 2.92,-3.18 5.84,-6.4 9.66,-8.51 0.67,-0.41 0.11,-1.38 -0.53,-1.01z"/>
   <path fill="black" fill-rule="nonzero" d="M289.48 255.93c-4.13,-0.86 -8.29,-1.75 -12.42,-2.68 -2.06,-0.44 -4.16,-1 -6.26,-1.37 -1.31,-0.22 -2.7,-0.33 -3.86,0.42 -1.8,1.16 -1.8,3.29 -0.18,4.56 1.16,0.94 2.66,1.34 4.05,1.79 2.25,0.71 4.17,1.6 5.63,3.51 0.45,0.56 1.43,0 0.98,-0.56 -1.32,-1.68 -2.9,-2.88 -4.92,-3.59 -1.39,-0.48 -2.93,-0.78 -4.21,-1.49 -0.9,-0.48 -2.06,-1.23 -1.39,-2.58 0.64,-1.27 2.25,-1.16 3.41,-0.98 3.12,0.45 6.23,1.34 9.34,2.05 3.19,0.7 6.38,1.37 9.57,2.04 0.68,0.11 0.97,-0.97 0.26,-1.12z"/>
   <path fill="black" fill-rule="nonzero" d="M275.54 262.35c-1.64,3.03 -3.33,6.03 -4.97,9.06 -0.82,1.46 -1.53,3.04 -2.51,4.46 -1.01,1.46 -2.36,2.21 -3.93,2.96 -2.96,1.39 -6.15,2.52 -8.99,4.13 -1.28,0.76 -2.1,2.1 -1.01,3.41 1.35,1.61 4.01,0.97 5.81,0.67 2.48,-0.42 4.84,-1.25 7.09,-2.3 4.68,-2.25 8.65,-5.78 11.49,-10.12 0.42,-0.6 -0.56,-1.16 -0.97,-0.56 -2.51,3.9 -5.99,7.04 -10.07,9.22 -1.95,1.01 -4.05,1.84 -6.19,2.33 -1.2,0.3 -2.47,0.57 -3.75,0.61 -1.16,0.07 -1.46,0.22 -2.02,-0.94 -0.72,-0.67 -0.64,-1.12 0.18,-1.34 0.26,-0.12 0.49,-0.23 0.75,-0.34 2.4,-1.13 4.84,-2.22 7.23,-3.34 1.88,-0.87 3.71,-1.62 4.98,-3.3 1.5,-1.99 2.55,-4.35 3.74,-6.52 1.39,-2.51 2.77,-5.02 4.12,-7.49 0.33,-0.68 -0.64,-1.24 -0.98,-0.6z"/>
   <path fill="black" fill-rule="nonzero" d="M292.69 270.52c10.01,-2.83 19.72,-6.58 29.01,-11.24 4.61,-2.33 9.1,-4.84 13.49,-7.62 3.93,-2.47 8.09,-4.99 10.89,-8.77 0.42,-0.6 -0.56,-1.16 -0.97,-0.56 -2.92,3.97 -7.49,6.56 -11.61,9.11 -4.2,2.59 -8.54,4.99 -12.96,7.21 -9.04,4.46 -18.44,8.07 -28.15,10.82 -0.67,0.15 -0.37,1.24 0.3,1.05z"/>
   <path fill="black" fill-rule="nonzero" d="M329.38 159.95c3.1,-6.11 11.09,-4.73 15.03,-0.4 4.73,5.23 4.97,12.9 5.51,19.56 1.15,14.56 1.4,29.23 0.52,43.79 -0.44,7.07 -1.48,14.56 -6.19,20.18 -0.45,0.56 0.34,1.34 0.79,0.78 4.22,-5.09 5.68,-11.53 6.27,-17.97 0.77,-8.23 0.76,-16.58 0.67,-24.85 -0.09,-8.64 -0.52,-17.33 -1.32,-25.93 -0.61,-6.48 -1.78,-13.62 -7.15,-17.92 -4.58,-3.66 -12.23,-3.53 -15.15,2.2 -0.3,0.64 0.68,1.2 1.02,0.56z"/>
   <path fill="black" fill-rule="nonzero" d="M258.93 287.67c2.74,1.23 6.04,3.1 9.16,3.09 3,-0.04 5.21,-2.51 7.23,-4.39 5.8,-5.39 11.61,-10.79 17.41,-16.15 0.52,-0.49 -0.27,-1.27 -0.79,-0.79 -4.91,4.58 -9.81,9.11 -14.71,13.69 -2.18,1.98 -4.42,4.83 -7.16,6.07 -3.22,1.46 -7.65,-1.15 -10.54,-2.45 -0.67,-0.34 -1.24,0.64 -0.6,0.93z"/>
   <path fill="black" fill-rule="nonzero" d="M274.19 286.86c1.24,2.32 3.98,1.38 5.37,-0.23 2.73,-3.22 4.86,-7.12 7.18,-10.6 0.41,-0.6 -0.57,-1.16 -0.98,-0.56 -1.46,2.17 -2.92,4.34 -4.37,6.52 -0.83,1.2 -4.45,7.68 -6.22,4.31 -0.34,-0.64 -1.31,-0.07 -0.98,0.56z"/>
   <path fill="black" fill-rule="nonzero" d="M265.49 285.04c1.13,0.6 2.52,1.2 3.75,0.6 0.64,-0.34 0.9,-0.87 1.2,-1.46 0.52,-1.02 1.05,-1.8 2.02,-2.44 0.6,-0.41 0.04,-1.39 -0.56,-0.97 -0.9,0.6 -1.65,1.35 -2.17,2.32 -0.38,0.71 -0.6,1.57 -1.58,1.65 -0.71,0.08 -1.5,-0.37 -2.1,-0.67 -0.6,-0.3 -1.2,0.64 -0.56,0.97z"/>
   <path fill="white" fill-rule="nonzero" d="M257.46 71.22c-1.31,2.66 -2.62,7.12 -3.03,8.58 -0.59,2.1 -1.93,7 -2.67,13.51 -0.41,3.6 -0.85,7.53 -0.47,12.73 0.19,2.47 0.46,6.36 1.93,11.18 0.98,3.3 2.41,8.05 6.28,12.9 3.38,4.23 7.25,6.88 10.33,8.48 1.95,0.04 4.31,-0.08 6.94,-0.57 4.72,-0.91 8.39,-2.67 10.86,-4.1 0.34,1.91 0.8,3.93 1.36,6.03 1.17,4.34 2.6,8.15 4.03,11.44 1.54,-0.26 3.38,-0.72 5.33,-1.62 6.18,-2.89 9.13,-8.21 10.18,-10.42 -0.57,-2.17 -1.02,-4.52 -1.44,-6.96 -1.44,-9.09 -1.07,-17.21 -0.19,-23.8 0.79,0.27 2.07,0.6 3.64,0.52 3.08,-0.19 5.17,-1.88 6.22,-2.78 0.9,-0.75 4.98,-4.38 4.82,-9.77 -0.03,-1.27 -0.11,-4.38 -2.33,-6.06 -2.06,-1.53 -4.84,-0.97 -6.86,-0.55 -2.33,0.49 -4.05,1.47 -5.1,2.14 0.78,-2.58 2.42,-9.21 -0.03,-16.91 -0.52,-1.65 -4.03,-12.12 -14.31,-16.63 -13.96,-6.19 -30.71,3.04 -35.49,12.66z"/>
   <path fill="#9B9797" fill-rule="nonzero" fill-opacity="0.239216" d="M299.83 71.38c0.31,3.48 0.54,8.53 0.03,14.52 -1.59,18.15 -8.77,30.78 -10.64,33.92 -2.84,4.8 -7.7,11.77 -15.49,18.63 2.32,-0.31 4.98,-0.83 7.83,-1.85 7.84,-2.78 13.08,-7.54 15.92,-10.65 0.23,4.15 0.96,9.2 2.65,14.74 0.76,2.35 1.58,4.52 2.45,6.47 1.98,-2.59 3.93,-5.17 5.91,-7.8 -0.41,-2.43 -0.79,-5.01 -1.06,-7.67 -0.88,-8.04 -0.89,-15.45 -0.45,-22.04 1.69,0.04 4.13,-0.12 6.71,-1.13 11.32,-4.51 17.74,-22.37 11.61,-32.09 -0.26,-0.41 -1.61,-2.51 -4.39,-4.37 -8.6,-5.75 -19.5,-1.36 -21.08,-0.68z"/>
   <path fill="#0A3871" fill-rule="nonzero" d="M254.73 78.68c-0.75,-2.58 -1.81,-7.52 -0.73,-13.59 0.33,-1.87 1.48,-7.9 5.6,-12.65 6.03,-6.94 13.6,-5.64 23.42,-9.17 6.23,-2.22 14.77,-6.88 23.41,-17.82 -0.78,4.05 -1.56,8.13 -2.34,12.17 1.35,0.37 5.89,1.34 10.54,-0.95 7.71,-3.8 8.37,-12.93 8.41,-13.34 0.94,2.09 2.64,6.73 1.9,12.65 -0.52,4.04 -1.98,7.07 -3.03,8.91 0.45,0.48 2.86,2.95 5.63,2.57 3.38,-0.45 6.52,-5.06 5.61,-11.01 0.75,2.21 1.66,5.83 1.44,10.29 -0.29,5.42 -2.08,9.51 -3.28,11.72 0.3,0.26 2.22,1.98 4.92,1.64 2.36,-0.31 4.38,-2.03 5.16,-4.47 -0.18,2.51 -0.62,6.14 -2.08,10.3 -1.98,5.61 -3.63,6.07 -4.45,10.07 -1.3,6.29 2.08,8.42 1.19,14.03 -0.74,4.72 -3.81,7.68 -7.71,11.47 -7.07,6.86 -15.21,10.57 -22.03,12.64 0.3,-2.09 0.63,-4.19 0.93,-6.28 0.86,0.52 2.37,1.23 4.24,1.15 3.82,-0.16 6.22,-3.57 7.49,-5.4 1.46,-2.06 3.89,-5.58 2.57,-9.36 -1.09,-3.07 -3.98,-4.34 -4.24,-4.45 -3.38,-1.41 -7.73,-0.14 -10.53,3.31 -1.59,-6.17 -3.14,-12.3 -4.72,-18.48 -5.33,-3.36 -10.62,-6.68 -15.95,-10.04 -2.63,-0.48 -9.79,-1.44 -17.81,2.13 -8.1,3.6 -12.21,9.71 -13.56,11.96z"/>
   <path fill="black" fill-rule="nonzero" d="M254.17 78.53c-3.17,11.9 -5.06,24.56 -2.12,36.71 2.42,9.88 8.51,21.13 18.87,24.33 0.67,0.23 0.97,-0.86 0.3,-1.08 -10.4,-3.2 -16.23,-14.91 -18.38,-24.78 -2.53,-11.6 -0.64,-23.58 2.38,-34.88 0.22,-0.68 -0.86,-0.98 -1.05,-0.3z"/>
   <path fill="black" fill-rule="nonzero" d="M271.74 139.39c17.29,-1.79 31.7,-14.28 35.73,-31.2 0.15,-0.71 -0.91,-1.01 -1.09,-0.3 -3.91,16.36 -17.81,28.62 -34.64,30.37 -0.71,0.08 -0.75,1.2 0,1.13z"/>
   <path fill="black" fill-rule="nonzero" d="M306.49 108.49c7.73,4.71 15.26,-5.19 15.73,-12.11 0.26,-3.67 -1.43,-6.47 -5.07,-7.51 -3.38,-0.97 -7.05,0.05 -9.45,2.59 -0.48,0.53 0.3,1.31 0.79,0.79 1.98,-2.14 4.98,-3.08 7.87,-2.45 1.5,0.34 3.15,1.16 4.02,2.5 0.94,1.46 0.83,3.48 0.61,5.09 -0.89,5.8 -7.33,14.12 -13.94,10.09 -0.6,-0.33 -1.2,0.64 -0.56,1.01z"/>
   <path fill="black" fill-rule="nonzero" d="M306.42 108.42c-1.45,10.37 -0.91,20.88 1.58,31.06 0.19,0.71 1.28,0.41 1.09,-0.31 -2.45,-9.98 -2.99,-20.31 -1.59,-30.45 0.08,-0.72 -1.01,-1.01 -1.08,-0.3z"/>
   <path fill="black" fill-rule="nonzero" d="M287.07 134.08c1.17,6.06 2.98,11.94 5.47,17.62 0.3,0.67 1.27,0.07 0.97,-0.56 -2.45,-5.57 -4.22,-11.37 -5.35,-17.36 -0.15,-0.71 -1.2,-0.41 -1.09,0.3z"/>
   <path fill="black" fill-rule="nonzero" d="M293.32 151.85c7.24,-1.17 13.34,-6.16 16.07,-12.94 0.26,-0.67 -0.83,-0.97 -1.09,-0.29 -2.57,6.44 -8.45,11.05 -15.28,12.14 -0.71,0.12 -0.41,1.2 0.3,1.09z"/>
   <path fill="black" fill-rule="nonzero" d="M287.97 135.39c1.54,0.07 2.59,-0.98 3.75,-1.88 1.54,-1.2 3,-2.47 4.34,-3.82 2.51,-2.51 4.53,-5.4 5.84,-8.69 0.26,-0.67 -0.83,-0.97 -1.09,-0.3 -1.16,2.92 -2.95,5.51 -5.12,7.76 -0.98,1.05 -2.02,1.98 -3.11,2.92 -1.2,1.01 -2.92,2.96 -4.61,2.89 -0.71,-0.04 -0.71,1.09 0,1.12z"/>
   <path fill="black" fill-rule="nonzero" d="M288.05 134.79c3.18,-2.06 6.14,-4.42 8.91,-7.01 0.53,-0.49 -0.26,-1.31 -0.79,-0.78 -2.69,2.55 -5.58,4.83 -8.69,6.86 -0.63,0.34 -0.03,1.31 0.57,0.93z"/>
   <path fill="black" fill-rule="nonzero" d="M265.91 80.68c-2.08,9.54 -3.27,19.24 -3.52,29.01 0.01,0.56 0.76,0.74 1.06,0.29 1.45,-2.32 2.91,-4.68 4.37,-7 0.38,-0.6 -0.6,-1.2 -0.97,-0.56 -1.46,2.32 -2.92,4.68 -4.38,7 0.34,0.12 0.71,0.19 1.05,0.3 0.25,-9.65 1.43,-19.27 3.48,-28.71 0.15,-0.74 -0.94,-1.04 -1.09,-0.33z"/>
   <path fill="black" fill-rule="nonzero" d="M267.48 123.75c-0.9,-1.68 -1.51,-3.48 -1.66,-5.39 -0.11,-1.34 0.18,-6.81 2.73,-4.64 1.35,1.16 1.17,3.7 1.21,5.39 0,0.78 0,1.6 -0.07,2.39 -0.04,0.56 -0.11,1.12 -0.22,1.65 -0.98,0.67 -1.73,0.64 -2.22,-0.07 -0.48,-0.53 -1.31,0.26 -0.78,0.78 1.61,1.65 3.71,1.72 4.16,-0.86 0.33,-1.84 0.33,-3.78 0.18,-5.62 -0.12,-1.46 -0.12,-3.55 -1.21,-4.67 -1.62,-1.65 -3.9,-0.11 -4.54,1.65 -1.15,3.15 -0.02,7.11 1.48,9.95 0.3,0.64 1.28,0.08 0.94,-0.56z"/>
   <path fill="black" fill-rule="nonzero" d="M275.19 90.06c1.13,5.27 8.07,5.67 10.12,0.8 0.27,-0.67 -0.82,-0.97 -1.08,-0.29 -1.69,3.97 -7.09,3.23 -7.96,-0.81 -0.15,-0.68 -1.23,-0.41 -1.08,0.3z"/>
   <path fill="black" fill-rule="nonzero" d="M272.95 77.08c1.42,-3.19 5.1,-4.73 8.47,-4.02 3.49,0.74 6.16,3.43 7.89,6.38 0.37,0.64 1.35,0.08 0.97,-0.56 -1.99,-3.4 -5.15,-6.43 -9.2,-7.02 -3.63,-0.52 -7.53,1.21 -9.1,4.62 -0.3,0.71 0.68,1.27 0.97,0.6z"/>
   <path fill="black" fill-rule="nonzero" d="M250.98 78.35c1.01,-2.1 2.77,-4.39 5.36,-4.35 2.47,0.03 4.28,2.2 5.52,4.1 0.37,0.6 1.35,0.04 0.97,-0.56 -1.43,-2.28 -3.57,-4.63 -6.49,-4.67 -3.01,-0.03 -5.1,2.44 -6.3,4.92 -0.33,0.63 0.64,1.19 0.94,0.56z"/>
   <path fill="black" fill-rule="nonzero" d="M257.65 95.29c0.66,0 1.19,-2.47 1.19,-5.51 -0.01,-3.03 -0.55,-5.5 -1.21,-5.5 -0.66,0.01 -1.2,2.47 -1.19,5.51 0,3.04 0.54,5.5 1.21,5.5z"/>
   <path fill="white" fill-rule="nonzero" d="M261.19 154.48c-0.11,1.39 -0.26,3.3 -0.33,5.51 -0.32,7.56 -0.01,13.28 0.1,14.81 0.31,4.98 1,11.49 2.58,19.05 -1.49,1.72 -3.74,4.27 -6.62,7.27 -5.47,5.73 -8.28,8.66 -12.77,11.7 -5.02,3.37 -8.51,4.43 -10.38,4.91 -2.36,0.57 -4.61,1.1 -7.35,0.5 -4.46,-1 -7.13,-4.29 -8.11,-5.56 -2.48,-3.14 -3.05,-6.21 -4.07,-12.19 -0.76,-4.38 -0.91,-7.71 -1.15,-14.15 -0.11,-3.07 -0.27,-6.81 -0.2,-11.82 0.06,-5.65 0.35,-12.35 1.17,-19.84 0.37,-3.37 0.88,-7.52 1.7,-12.24 -0.64,-0.89 -1.31,-1.79 -2.03,-2.73 -0.75,-0.97 -1.46,-1.9 -2.22,-2.84 -1.91,1.62 -3.78,3.26 -5.69,4.88 -0.48,0.19 -1.35,0.49 -2.4,0.38 -1.99,-0.19 -3.15,-1.57 -3.56,-2.02 -1.84,-2.09 -1.59,-4.75 -1.51,-5.27 2.58,-2.82 5.16,-5.59 7.78,-8.4 0.04,-1.61 0.26,-3.7 0.9,-6.03 0.48,-1.72 1.08,-3.14 1.64,-4.34 0.48,-0.97 1.16,-2.06 2.02,-3.15 1.53,-2.02 3.18,-3.44 4.53,-4.42 -1.09,0.49 -1.35,0.49 -1.43,0.41 -0.18,-0.29 1.58,-2.5 4.05,-2.73 1.39,-0.16 2.47,0.37 3.23,0.7 1.16,0.56 1.95,1.27 2.44,1.79 2.32,-1.98 4.64,-3.97 6.96,-5.92 0.83,0.49 1.65,1.05 2.48,1.61 1.91,1.3 3.64,2.61 5.18,3.88 -0.56,0.71 -1.27,1.5 -2.17,2.29 -1.5,1.31 -3,2.1 -4.16,2.62 0.71,0.23 1.99,0.75 2.63,1.98 0.64,1.2 0.38,2.51 0.01,4.16 -0.27,1.12 -0.6,2.02 -0.86,2.62 0.15,1.57 0.23,3.7 -0.22,6.1 -0.7,3.93 -2.35,6.85 -3.47,8.53 -0.04,1.46 -0.07,3.75 0.01,6.55 0.32,11.57 2.02,18.34 3.12,26.87 0.64,4.86 1.29,12.08 1.12,21.18 0.86,-0.57 2.1,-1.47 3.48,-2.63 3.52,-2.96 5.77,-5.92 8.72,-10.27 2.92,-4.23 4.83,-7.38 7.41,-11.57 1.61,-2.74 4.19,-6.89 7.44,-12.18z"/>
   <path fill="#9B9797" fill-rule="nonzero" fill-opacity="0.239216" d="M227.05 120.37c-0.78,1.72 -1.57,3.48 -2.35,5.28 -2.28,5.4 -4.15,10.56 -5.68,15.5 -0.32,7.79 -0.5,14.3 -0.64,19.02 -0.18,7.14 0.28,15.68 1.14,32.74 0.35,7.03 0.65,11.3 3.96,14.4 3.45,3.21 8.25,3.28 10.95,3.28 14.4,-0.07 25.15,-12.32 28.1,-15.88 -4,6.82 -8.57,11.28 -11.67,13.9 -3.53,2.97 -8.06,6.68 -15.1,8.52 -5.96,1.58 -8.66,1.25 -9.38,1.1 -5.14,-1.22 -7.99,-5.49 -9.01,-6.94 -2.44,-3.63 -3.23,-7.41 -3.7,-15.53 -0.46,-8.34 0.02,-10.55 0.15,-22.04 0.1,-10.96 -0.32,-14.07 0.49,-21.67 0.48,-4.45 1.08,-8.12 1.56,-10.59 -1.46,-1.53 -2.93,-3.06 -4.39,-4.56 -1.24,1.09 -2.51,2.14 -3.79,3.22 -0.82,0.72 -1.68,1.43 -2.5,2.1 -0.75,0.08 -1.84,0.05 -3,-0.44 -3.01,-1.27 -4.89,-4.97 -3.95,-6.24 0.6,-0.86 2.17,-0.19 4.35,-0.2 3.75,0.03 6.26,-1.88 11.24,-5.48 3.52,-2.59 7.56,-5.47 13.22,-9.49z"/>
   <path fill="black" fill-rule="nonzero" d="M260.7 154.18c-8.64,11.96 -15.03,25.66 -25.96,35.86 -0.53,0.49 0.26,1.27 0.79,0.78 11,-10.27 17.43,-24.05 26.15,-36.08 0.45,-0.56 -0.53,-1.12 -0.98,-0.56z"/>
   <path fill="black" fill-rule="nonzero" d="M228.56 219.09c14.85,-1 25.48,-13.44 34.39,-24.01 0.44,-0.56 -0.34,-1.34 -0.79,-0.78 -8.65,10.34 -19.13,22.71 -33.56,23.7 -0.75,0.01 -0.75,1.13 -0.04,1.09z"/>
   <path fill="black" fill-rule="nonzero" d="M221.34 113.68c0.08,2.96 2.03,5.5 4.88,6.32 0.72,0.19 1.02,-0.9 0.3,-1.09 -2.36,-0.67 -3.98,-2.8 -4.06,-5.23 -0.03,-0.71 -1.16,-0.71 -1.12,0z"/>
   <path fill="black" fill-rule="nonzero" d="M222.5 113.34c0.37,-3.25 6.19,-0.9 7.76,-0.08 1.54,0.78 3.08,1.56 3.42,3.43 0.27,1.43 -0.18,2.92 -0.55,4.31 -0.19,0.71 0.9,1.01 1.08,0.3 0.53,-1.88 1.08,-4.01 0.29,-5.84 -0.75,-1.87 -2.81,-2.73 -4.5,-3.55 -1.73,-0.82 -3.6,-1.42 -5.55,-1.19 -0.79,0.12 -1.8,0.3 -2.44,0.83 -0.67,0.52 -0.52,0.9 -0.63,1.83 -0.08,0.68 1.05,0.68 1.12,-0.04z"/>
   <path fill="black" fill-rule="nonzero" d="M232.75 120.77c-0.11,2.85 0.53,5.62 -0.14,8.46 -0.63,2.62 -1.9,5.06 -3.17,7.42 -0.34,0.63 0.64,1.19 0.97,0.56 1.31,-2.48 2.62,-4.98 3.29,-7.68 0.71,-2.92 0.07,-5.8 0.18,-8.76 0.03,-0.75 -1.09,-0.74 -1.13,0z"/>
   <path fill="black" fill-rule="nonzero" d="M229.44 136.68c-0.83,19.73 4.86,39.03 3.99,58.75 -0.03,0.71 1.09,0.71 1.13,0 0.87,-19.72 -4.83,-39.02 -4,-58.75 0.04,-0.71 -1.08,-0.71 -1.12,0z"/>
   <path fill="black" fill-rule="nonzero" d="M211.03 137.13c1.12,1.57 2.33,3.06 3.68,4.44 0.49,0.53 1.27,-0.26 0.79,-0.78 -1.28,-1.35 -2.45,-2.73 -3.5,-4.23 -0.45,-0.6 -1.42,-0.03 -0.97,0.57z"/>
   <path fill="black" fill-rule="nonzero" d="M215.35 141.27c-2.12,12.17 -3.15,24.52 -3.09,36.87 0.04,6.14 0.35,12.31 0.96,18.41 0.5,5.2 1.11,10.66 3.85,15.22 2.48,4.15 6.84,7.29 11.79,7.17 0.71,-0.04 0.71,-1.16 0,-1.12 -6.94,0.2 -11.41,-5.97 -13.03,-12.03 -1.82,-6.66 -1.98,-13.92 -2.25,-20.77 -0.59,-14.52 0.4,-29.11 2.89,-43.41 0.08,-0.75 -1.01,-1.05 -1.12,-0.34z"/>
   <path fill="black" fill-rule="nonzero" d="M208.23 124.48c-3.52,2.96 -6.93,6.08 -10.15,9.34 -0.52,0.52 0.31,1.31 0.79,0.78 3.26,-3.26 6.63,-6.37 10.15,-9.33 0.56,-0.45 -0.23,-1.24 -0.79,-0.79z"/>
   <path fill="black" fill-rule="nonzero" d="M197.75 134.83c-0.56,4.34 2.75,8 7.14,7.96 0.71,0 0.71,-1.13 -0.01,-1.13 -3.78,0.05 -6.49,-3.13 -6.01,-6.83 0.11,-0.72 -1.01,-0.71 -1.12,0z"/>
   <path fill="black" fill-rule="nonzero" d="M198.8 134.56c3.94,0.11 6.68,3.62 5.86,7.44 -0.15,0.71 0.94,1.01 1.09,0.3 1,-4.61 -2.23,-8.72 -6.95,-8.86 -0.72,0 -0.71,1.12 0,1.12z"/>
   <path fill="black" fill-rule="nonzero" d="M206.2 142.11c4.27,-3.9 8.61,-7.76 12.77,-11.77 1.91,-1.84 3.74,-3.71 5.46,-5.73 0.94,-1.09 3.3,-3.23 3.33,-4.73 0,-0.18 -0.11,-0.41 -0.26,-0.48 -0.08,-0.04 -0.15,-0.08 -0.19,-0.08 -0.22,-0.11 -0.52,-0.11 -0.67,0.08 -0.04,0.04 -0.08,0.07 -0.12,0.15 -0.45,0.56 0.34,1.35 0.79,0.78 0.04,-0.03 0.08,-0.07 0.11,-0.15 -0.22,0.04 -0.45,0.08 -0.67,0.08 -0.08,-0.34 -0.19,-0.34 -0.34,0.04 -0.18,0.26 -0.37,0.52 -0.6,0.79 -0.45,0.56 -0.86,1.12 -1.34,1.68 -0.75,0.94 -1.58,1.84 -2.36,2.74 -1.65,1.8 -3.37,3.48 -5.13,5.13 -3.82,3.6 -7.71,7.09 -11.57,10.65 -0.56,0.52 0.26,1.31 0.79,0.82z"/>
   <path fill="black" fill-rule="nonzero" d="M206.66 126.58c0.26,-1.8 0.52,-3.59 0.78,-5.39 0.18,-1.35 0.33,-2.84 1.08,-4.04 1.72,-2.78 4.16,-0.8 5.48,1.07 0.56,0.79 1.09,1.65 1.65,2.43 0.3,0.45 1.77,2.06 1.58,2.62 0.19,-0.15 0.37,-0.26 0.52,-0.41 -0.07,0 -0.11,0 -0.18,0 -0.72,-0.04 -0.71,1.08 0,1.12 0.07,0 0.11,0 0.19,0 0.26,0 0.48,-0.19 0.52,-0.41 0.26,-0.94 -0.38,-1.5 -0.87,-2.25 -0.94,-1.38 -1.84,-2.8 -2.82,-4.15 -1.01,-1.38 -2.32,-2.72 -4.2,-2.53 -1.8,0.19 -2.88,1.57 -3.44,3.18 -0.94,2.66 -1.01,5.69 -1.42,8.46 -0.07,0.71 1.02,1.01 1.13,0.3z"/>
   <path fill="black" fill-rule="nonzero" d="M208.42 122.35c1.01,1.98 2.7,4 5.1,4.14 1.99,0.15 3.86,-0.98 4.39,-2.92 0.18,-0.71 -0.91,-1.01 -1.09,-0.3 -0.49,1.8 -2.47,2.47 -4.12,1.92 -1.58,-0.56 -2.6,-1.95 -3.31,-3.37 -0.34,-0.67 -1.31,-0.11 -0.97,0.53z"/>
   <path fill="black" fill-rule="nonzero" d="M209.79 115.05c0.19,-1.84 2.29,-2.33 3.71,-1.84 1.5,0.48 2.67,1.83 3.72,2.91 0.82,0.86 2.44,2.06 2.67,3.25 0.3,1.61 -1.72,2.7 -3.07,3.11 -0.68,0.19 -0.41,1.28 0.3,1.09 1.65,-0.49 4.04,-1.95 4.3,-3.9 0.12,-0.79 -0.37,-1.2 -0.9,-1.76 -1.05,-1.12 -2.06,-2.2 -3.15,-3.29 -1.47,-1.49 -3.35,-3.1 -5.6,-2.72 -1.68,0.27 -2.92,1.39 -3.1,3.11 -0.08,0.75 1.05,0.75 1.12,0.04z"/>
   <path fill="black" fill-rule="nonzero" d="M211.81 112.28c0.53,-0.6 0.79,-1.39 1.27,-1.99 1.2,-1.5 3.08,-0.12 4.32,0.78 2.4,1.68 4.96,4.74 2.78,7.67 -0.41,0.6 0.57,1.16 0.98,0.56 2.32,-3.15 0.03,-6.78 -2.64,-8.79 -1.24,-0.94 -3.12,-2.62 -4.8,-2.13 -1.5,0.42 -1.76,2.14 -2.7,3.15 -0.48,0.49 0.31,1.27 0.79,0.75z"/>
   <path fill="black" fill-rule="nonzero" d="M215.59 108.86c1.31,-1.61 3.04,-3.29 5.06,-1.61 1.36,1.08 2.22,2.61 2.71,4.22 0.23,0.67 1.28,0.41 1.09,-0.3 -0.64,-2.17 -2.11,-4.67 -4.29,-5.57 -2.21,-0.89 -4.05,0.87 -5.35,2.48 -0.45,0.52 0.33,1.35 0.78,0.78z"/>
   <path fill="black" fill-rule="nonzero" d="M223.88 109c2.32,-1.99 4.64,-3.97 6.97,-5.92 0.56,-0.49 -0.27,-1.28 -0.79,-0.79 -2.32,1.99 -4.65,3.98 -6.97,5.93 -0.56,0.48 0.27,1.27 0.79,0.78z"/>
   <path fill="black" fill-rule="nonzero" d="M232.18 113.78c2.21,-1.62 4.34,-3.34 6.33,-5.21 0.52,-0.49 -0.27,-1.28 -0.79,-0.79 -1.95,1.8 -3.97,3.49 -6.11,5.03 -0.6,0.41 -0.03,1.38 0.57,0.97z"/>
   <path fill="black" fill-rule="nonzero" d="M269.59 88.31c0.02,11.35 -9.19,20.58 -20.58,20.6l0 4.07c13.63,-0.03 24.67,-11.07 24.65,-24.68l-4.07 0.01zm-20.58 20.6c-11.39,0.02 -20.64,-9.18 -20.65,-20.54l-4.07 0.01c0.02,13.61 11.09,24.62 24.72,24.6l0 -4.07zm-20.65 -20.54c-0.02,-11.35 9.19,-20.58 20.58,-20.6l-0.01 -4.07c-13.62,0.03 -24.66,11.07 -24.64,24.68l4.07 -0.01zm20.58 -20.6c11.39,-0.02 20.63,9.18 20.65,20.54l4.07 -0.01c-0.03,-13.61 -11.1,-24.62 -24.73,-24.6l0.01 4.07z"/>
   <path fill="black" fill-rule="nonzero" d="M235.25 91.13c8.32,-5.33 16.82,-10.35 25.51,-15.08 0.64,-0.34 0.08,-1.31 -0.56,-0.98 -8.69,4.7 -17.2,9.73 -25.51,15.09 -0.6,0.41 -0.04,1.38 0.56,0.97z"/>
   <path fill="black" fill-rule="nonzero" d="M236.21 100.94c6.85,-5.03 13.78,-9.87 20.86,-14.6 0.6,-0.41 0.03,-1.38 -0.56,-0.97 -7.05,4.73 -14.01,9.6 -20.87,14.59 -0.6,0.42 -0.03,1.39 0.57,0.98z"/>
  </g>
 </g>
</svg>
